<svg width="117" height="38" viewBox="0 0 117 38" fill="none" xmlns="http://www.w3.org/2000/svg">
<path id="path2" d="M18.9093 33.6755L17.2096 29.32L33.5693 30.1699L32.8257 37.1812L18.9093 33.6755ZM22.8399 0L0 10.8357L3.50565 27.0891H8.17986L7.43624 15.4036L8.07363 15.1912L10.9419 27.0891H15.7223L15.6161 12.8541L16.2535 12.6416L18.6968 27.0891H23.9022L25.0707 9.98581L25.8144 9.66711L27.0891 27.0891H33.7817L36.2251 3.29319L22.8399 0ZM113.031 33.1444L106.551 32.082V31.2322L112.818 31.0197L112.712 29.4262H104.745L104.32 33.4631L110.906 34.6316V35.3752L104.001 35.6939L103.789 37.1812H113.456L113.031 33.1444ZM50.9913 32.507L50.8851 33.9942L53.2222 34.1005V35.5877L48.2293 35.4815L48.4418 31.126L55.2406 31.0197L55.1344 29.4262H46.3172L45.5735 37.1812H55.5593L55.3468 32.4007L50.9913 32.507ZM93.3779 35.3752V33.9942L98.0521 33.888V32.4007L93.2717 32.2945V30.9135L99.5393 30.8073V29.2138H91.0408L90.8283 37.1812H99.7518L99.6456 35.5877L93.3779 35.3752ZM86.579 37.1812L85.7292 29.32H83.4983L80.2051 33.0381L76.9119 29.32H74.6811L73.9374 37.1812H76.5933L76.8057 32.082L80.2051 35.5877L83.6045 32.082L83.817 37.1812H86.579ZM75.3185 0.531161H70.0069L69.5819 24.8583H75.9558L75.3185 0.531161ZM96.9898 0.531161H80.4176L79.7802 24.8583H98.1583L96.9898 0.531161ZM91.8906 19.5467L86.0479 19.7591L85.7292 5.41783L91.8906 5.63029V19.5467ZM116.855 5.84276L116.218 0.531161H99.858L100.07 5.20537L105.276 5.41783L105.807 24.8583H112.287L110.375 5.63029L116.855 5.84276ZM59.5961 24.8583H66.6074L62.0395 13.9164L65.6513 11.898L63.208 0.531161H45.361L44.7237 5.84276L48.7605 5.73653L46.8483 24.9645H53.116L53.3284 18.8031L57.7902 16.3597L59.5961 24.8583ZM53.6471 5.41783L58.7463 5.3116L59.3837 10.1983L53.4347 12.9603L53.6471 5.41783ZM67.4573 37.1812H70.1131L67.9884 29.32H61.6145L59.4899 37.1812H62.1457L62.5706 35.1628L66.9261 35.269L67.4573 37.1812ZM62.9955 33.6755L63.5267 31.126L66.0763 31.0197L66.6074 33.5693L62.9955 33.6755Z" fill="#B03336"/>
</svg>
